# xmcd CD database file
#
# Track frame offsets:
#	150
#	11368
#	25053
#	40591
#	53311
#	70334
#	84048
#	100168
#	117936
#	133852
#	153217
#
# Disc length: 2308 seconds
#
# Revision: 0
# Processed by: cddbd v1.5.1PL0 Copyright (c) Steve Scherf et al.
# Submitted via: CDex 1.51
#
DISCID=7309020b
DTITLE=Roxie Dean - Ms America
DYEAR=2005
DGENRE=Country
TTITLE0=Miss America
TTITLE1=Just Like A Man
TTITLE2=Why They Call It Falling
TTITLE3=A Man Like Bugs
TTITLE4=Sandcastles
TTITLE5=Women Know Women
TTITLE6=If I Had A Daughter
TTITLE7=Remind Me
TTITLE8=Everything I Hear
TTITLE9=A Soldier's Wife
TTITLE10=A Soldier's Wife (Remix)
EXTD=YEAR: 2005
EXTT0=
EXTT1=
EXTT2=
EXTT3=
EXTT4=
EXTT5=
EXTT6=
EXTT7=
EXTT8=
EXTT9=
EXTT10=
PLAYORDER=
